<?xml version="1.0" encoding="utf-8"?>
<!-- Generator: Adobe Illustrator 23.0.0, SVG Export Plug-In . SVG Version: 6.00 Build 0)  -->
<!DOCTYPE svg PUBLIC "-//W3C//DTD SVG 1.1//EN" "http://www.w3.org/Graphics/SVG/1.1/DTD/svg11.dtd" [
	<!ENTITY ns_extend "http://ns.adobe.com/Extensibility/1.0/">
	<!ENTITY ns_ai "http://ns.adobe.com/AdobeIllustrator/10.0/">
	<!ENTITY ns_graphs "http://ns.adobe.com/Graphs/1.0/">
	<!ENTITY ns_vars "http://ns.adobe.com/Variables/1.0/">
	<!ENTITY ns_imrep "http://ns.adobe.com/ImageReplacement/1.0/">
	<!ENTITY ns_sfw "http://ns.adobe.com/SaveForWeb/1.0/">
	<!ENTITY ns_custom "http://ns.adobe.com/GenericCustomNamespace/1.0/">
	<!ENTITY ns_adobe_xpath "http://ns.adobe.com/XPath/1.0/">
]>
<svg version="1.1" id="Layer_1" xmlns:x="&ns_extend;" xmlns:i="&ns_ai;" xmlns:graph="&ns_graphs;"
	 xmlns="http://www.w3.org/2000/svg" xmlns:xlink="http://www.w3.org/1999/xlink" x="0px" y="0px" viewBox="0 0 151 61.99"
	 style="enable-background:new 0 0 151 61.99;" xml:space="preserve">
<style type="text/css">
	.st0{fill:#488FCD;}
</style>
<metadata>
	<sfw  xmlns="&ns_sfw;">
		<slices></slices>
		<sliceSourceBounds  bottomLeftOrigin="true" height="60.35" width="149.78" x="0.61" y="-61.48"></sliceSourceBounds>
	</sfw>
</metadata>
<g>
	<path class="st0" d="M18.01,48.44h-3.35v-1.21h8.15v1.21h-3.37v9.81h-1.44V48.44z"/>
	<path class="st0" d="M23.63,54.56c0.03,1.94,1.27,2.75,2.71,2.75c1.03,0,1.65-0.18,2.19-0.41l0.25,1.03
		c-0.51,0.23-1.37,0.49-2.63,0.49c-2.43,0-3.89-1.6-3.89-3.99s1.41-4.27,3.71-4.27c2.58,0,3.27,2.27,3.27,3.73
		c0,0.29-0.03,0.52-0.05,0.67H23.63z M27.85,53.53c0.02-0.92-0.38-2.34-1.99-2.34c-1.45,0-2.09,1.34-2.21,2.34H27.85z"/>
	<path class="st0" d="M31.02,52.48c0-0.82-0.02-1.49-0.07-2.14h1.26l0.07,1.27h0.05c0.44-0.75,1.18-1.46,2.48-1.46
		c1.08,0,1.9,0.65,2.24,1.59h0.03c0.25-0.44,0.56-0.79,0.88-1.03c0.47-0.36,1-0.56,1.75-0.56c1.05,0,2.6,0.69,2.6,3.43v4.66h-1.41
		v-4.48c0-1.52-0.56-2.44-1.72-2.44c-0.82,0-1.46,0.61-1.7,1.31c-0.07,0.2-0.11,0.46-0.11,0.72v4.89h-1.41v-4.74
		c0-1.26-0.56-2.17-1.65-2.17c-0.9,0-1.55,0.72-1.78,1.44c-0.08,0.21-0.11,0.46-0.11,0.7v4.77h-1.41V52.48z"/>
	<path class="st0" d="M44.65,52.92c0-1.01-0.03-1.83-0.07-2.58h1.29l0.07,1.36h0.03c0.59-0.96,1.52-1.54,2.81-1.54
		c1.91,0,3.35,1.62,3.35,4.02c0,2.84-1.73,4.25-3.6,4.25c-1.05,0-1.96-0.46-2.43-1.24h-0.03v4.3h-1.42V52.92z M46.07,55.03
		c0,0.21,0.03,0.41,0.06,0.59c0.26,1,1.13,1.68,2.16,1.68c1.52,0,2.4-1.24,2.4-3.06c0-1.58-0.83-2.94-2.35-2.94
		c-0.98,0-1.9,0.7-2.17,1.78c-0.05,0.18-0.1,0.39-0.1,0.59V55.03z"/>
	<path class="st0" d="M53.95,46.65h1.44v11.6h-1.44V46.65z"/>
	<path class="st0" d="M62.19,58.25l-0.11-1h-0.05c-0.44,0.62-1.29,1.18-2.42,1.18c-1.6,0-2.42-1.13-2.42-2.27
		c0-1.91,1.7-2.96,4.75-2.94v-0.16c0-0.65-0.18-1.83-1.8-1.83c-0.74,0-1.5,0.23-2.06,0.59l-0.33-0.95c0.65-0.42,1.6-0.7,2.6-0.7
		c2.42,0,3.01,1.65,3.01,3.24v2.96c0,0.69,0.03,1.36,0.13,1.9H62.19z M61.98,54.21c-1.57-0.03-3.35,0.25-3.35,1.78
		c0,0.93,0.62,1.37,1.36,1.37c1.03,0,1.68-0.65,1.91-1.32c0.05-0.15,0.08-0.31,0.08-0.46V54.21z"/>
	<path class="st0" d="M67.35,48.07v2.27h2.06v1.09h-2.06v4.26c0,0.98,0.28,1.54,1.08,1.54c0.38,0,0.65-0.05,0.83-0.1l0.07,1.08
		c-0.28,0.11-0.72,0.2-1.27,0.2c-0.67,0-1.21-0.21-1.55-0.6c-0.41-0.42-0.56-1.13-0.56-2.06v-4.31h-1.23v-1.09h1.23v-1.9
		L67.35,48.07z"/>
	<path class="st0" d="M71.73,54.56c0.03,1.94,1.27,2.75,2.71,2.75c1.03,0,1.65-0.18,2.19-0.41l0.25,1.03
		c-0.51,0.23-1.37,0.49-2.63,0.49c-2.44,0-3.89-1.6-3.89-3.99s1.41-4.27,3.71-4.27c2.58,0,3.27,2.27,3.27,3.73
		c0,0.29-0.03,0.52-0.05,0.67H71.73z M75.95,53.53c0.02-0.92-0.38-2.34-1.99-2.34c-1.45,0-2.09,1.34-2.21,2.34H75.95z"/>
	<path class="st0" d="M91.92,53.41c-0.08-1.54-0.18-3.38-0.16-4.76h-0.05c-0.38,1.29-0.83,2.66-1.39,4.18l-1.94,5.34h-1.08
		l-1.78-5.25c-0.52-1.55-0.96-2.97-1.27-4.28H84.2c-0.03,1.37-0.11,3.22-0.21,4.87l-0.29,4.72h-1.36l0.77-11.01h1.81l1.88,5.33
		c0.46,1.36,0.83,2.57,1.11,3.71h0.05c0.28-1.11,0.67-2.32,1.16-3.71l1.96-5.33h1.81l0.69,11.01H92.2L91.92,53.41z"/>
	<path class="st0" d="M102.98,54.23c0,2.93-2.03,4.2-3.94,4.2c-2.14,0-3.79-1.57-3.79-4.07c0-2.65,1.73-4.2,3.92-4.2
		C101.45,50.16,102.98,51.81,102.98,54.23z M96.71,54.31c0,1.73,1,3.04,2.4,3.04c1.37,0,2.4-1.29,2.4-3.07
		c0-1.34-0.67-3.04-2.37-3.04C97.44,51.24,96.71,52.81,96.71,54.31z"/>
	<path class="st0" d="M110.44,57.96c-0.38,0.2-1.21,0.46-2.27,0.46c-2.39,0-3.94-1.62-3.94-4.04c0-2.43,1.67-4.2,4.25-4.2
		c0.85,0,1.6,0.21,1.99,0.41l-0.33,1.11c-0.34-0.2-0.88-0.38-1.67-0.38c-1.81,0-2.79,1.34-2.79,2.99c0,1.83,1.18,2.96,2.75,2.96
		c0.82,0,1.36-0.21,1.76-0.39L110.44,57.96z"/>
	<path class="st0" d="M113.54,53.97h0.03c0.2-0.28,0.47-0.62,0.7-0.9l2.32-2.73h1.73l-3.06,3.25l3.48,4.66h-1.75l-2.73-3.79
		l-0.74,0.82v2.97h-1.42v-11.6h1.42V53.97z"/>
	<path class="st0" d="M126.47,56.09c0,0.82,0.02,1.54,0.07,2.16h-1.27l-0.08-1.29h-0.03c-0.38,0.64-1.21,1.47-2.62,1.47
		c-1.24,0-2.73-0.69-2.73-3.46v-4.62h1.44v4.38c0,1.5,0.46,2.52,1.76,2.52c0.96,0,1.63-0.67,1.9-1.31c0.08-0.21,0.13-0.47,0.13-0.74
		v-4.85h1.44V56.09z"/>
	<path class="st0" d="M128.86,52.92c0-1.01-0.03-1.83-0.07-2.58h1.29l0.07,1.36h0.03c0.59-0.96,1.52-1.54,2.81-1.54
		c1.91,0,3.35,1.62,3.35,4.02c0,2.84-1.73,4.25-3.6,4.25c-1.05,0-1.96-0.46-2.43-1.24h-0.03v4.3h-1.42V52.92z M130.28,55.03
		c0,0.21,0.03,0.41,0.06,0.59c0.26,1,1.13,1.68,2.16,1.68c1.52,0,2.4-1.24,2.4-3.06c0-1.58-0.83-2.94-2.35-2.94
		c-0.98,0-1.9,0.7-2.17,1.78c-0.05,0.18-0.1,0.39-0.1,0.59V55.03z"/>
</g>
<g>
	<path class="st0" d="M124.43,14.48c-0.25-0.15-0.72-0.22-1.41-0.22v16.03c0.91,0,1.47-0.18,1.69-0.55s0.32-1.36,0.32-2.99v-9.47
		c0-1.1-0.04-1.81-0.1-2.12C124.85,14.86,124.69,14.63,124.43,14.48z"/>
	<path class="st0" d="M97.54,14.27v5.42c0.71,0,1.21-0.1,1.5-0.29s0.43-0.83,0.43-1.9v-1.34c0-0.77-0.14-1.28-0.41-1.52
		C98.77,14.39,98.27,14.27,97.54,14.27z"/>
	<path class="st0" d="M129.24,1.13H21.76c-11.68,0-21.15,9.47-21.15,21.15v0c0,11.68,9.47,21.15,21.15,21.15h107.49
		c11.68,0,21.15-9.47,21.15-21.15v0C150.39,10.6,140.92,1.13,129.24,1.13z M34.62,20.71h-6.34v-4.24c0-1.23-0.07-2-0.2-2.31
		c-0.14-0.31-0.43-0.46-0.9-0.46c-0.52,0-0.85,0.19-0.99,0.56c-0.14,0.37-0.21,1.17-0.21,2.41v11.32c0,1.18,0.07,1.96,0.21,2.32
		c0.14,0.36,0.46,0.54,0.95,0.54c0.47,0,0.78-0.18,0.93-0.54c0.15-0.36,0.22-1.21,0.22-2.55V24.7h6.34v0.95
		c0,2.52-0.18,4.31-0.53,5.37c-0.36,1.06-1.14,1.98-2.36,2.77c-1.22,0.79-2.72,1.19-4.51,1.19c-1.86,0-3.39-0.34-4.59-1.01
		c-1.2-0.67-2-1.6-2.39-2.79c-0.39-1.19-0.59-2.98-0.59-5.37v-7.12c0-1.76,0.06-3.07,0.18-3.95c0.12-0.88,0.48-1.72,1.08-2.54
		c0.6-0.81,1.42-1.45,2.48-1.92c1.06-0.47,2.27-0.7,3.65-0.7c1.87,0,3.41,0.36,4.62,1.08c1.21,0.72,2.01,1.62,2.39,2.7
		s0.57,2.75,0.57,5.03V20.71z M50.24,32.07c-0.41,0.82-1.19,1.51-2.36,2.07c-1.16,0.56-2.52,0.83-4.06,0.83
		c-1.7,0-3.14-0.32-4.34-0.96c-1.2-0.64-1.98-1.46-2.36-2.45c-0.37-0.99-0.56-2.4-0.56-4.23v-1.6h5.89v2.97
		c0,0.91,0.08,1.5,0.25,1.76c0.17,0.26,0.46,0.39,0.88,0.39s0.73-0.17,0.94-0.5c0.21-0.33,0.31-0.82,0.31-1.48
		c0-1.44-0.2-2.37-0.59-2.81c-0.4-0.44-1.39-1.18-2.96-2.21c-1.58-1.04-2.62-1.8-3.13-2.27s-0.94-1.12-1.27-1.96
		c-0.34-0.83-0.5-1.9-0.5-3.19c0-1.87,0.24-3.23,0.72-4.09c0.48-0.86,1.25-1.54,2.31-2.02c1.06-0.49,2.35-0.73,3.85-0.73
		c1.65,0,3.05,0.27,4.21,0.8c1.16,0.53,1.93,1.2,2.3,2.01c0.38,0.81,0.56,2.18,0.56,4.12v0.96h-5.89v-1.81
		c0-0.84-0.08-1.38-0.23-1.61s-0.4-0.35-0.75-0.35c-0.38,0-0.67,0.16-0.87,0.47c-0.2,0.31-0.29,0.78-0.29,1.42
		c0,0.81,0.11,1.43,0.33,1.84c0.21,0.41,0.81,0.91,1.79,1.49c2.82,1.67,4.6,3.05,5.33,4.12c0.73,1.07,1.1,2.8,1.1,5.19
		C50.85,29.97,50.64,31.25,50.24,32.07z M66.18,32.07c-0.41,0.82-1.19,1.51-2.36,2.07c-1.16,0.56-2.52,0.83-4.06,0.83
		c-1.7,0-3.14-0.32-4.34-0.96c-1.2-0.64-1.98-1.46-2.36-2.45c-0.37-0.99-0.56-2.4-0.56-4.23v-1.6h5.89v2.97
		c0,0.91,0.08,1.5,0.25,1.76c0.17,0.26,0.46,0.39,0.88,0.39s0.73-0.17,0.94-0.5c0.21-0.33,0.31-0.82,0.31-1.48
		c0-1.44-0.2-2.37-0.59-2.81c-0.4-0.44-1.39-1.18-2.96-2.21c-1.58-1.04-2.62-1.8-3.13-2.27s-0.94-1.12-1.27-1.96
		c-0.34-0.83-0.5-1.9-0.5-3.19c0-1.87,0.24-3.23,0.72-4.09c0.48-0.86,1.25-1.54,2.31-2.02c1.06-0.49,2.35-0.73,3.85-0.73
		c1.65,0,3.05,0.27,4.21,0.8c1.16,0.53,1.93,1.2,2.3,2.01c0.38,0.81,0.56,2.18,0.56,4.12v0.96h-5.89v-1.81
		c0-0.84-0.08-1.38-0.23-1.61s-0.4-0.35-0.75-0.35c-0.38,0-0.67,0.16-0.87,0.47c-0.2,0.31-0.29,0.78-0.29,1.42
		c0,0.81,0.11,1.43,0.33,1.84c0.21,0.41,0.81,0.91,1.79,1.49c2.82,1.67,4.6,3.05,5.33,4.12c0.73,1.07,1.1,2.8,1.1,5.19
		C66.79,29.97,66.58,31.25,66.18,32.07z M88.75,19.07h-6.34v-2.21c0-1.4-0.06-2.27-0.18-2.62s-0.41-0.53-0.86-0.53
		c-0.39,0-0.66,0.15-0.8,0.45c-0.14,0.3-0.21,1.07-0.21,2.32v11.7c0,1.09,0.07,1.81,0.21,2.16s0.42,0.52,0.84,0.52
		c0.46,0,0.77-0.2,0.94-0.59c0.17-0.39,0.25-1.15,0.25-2.29v-2.89h-1.28v-3.7h7.42v13.08h-3.98l-0.59-1.75
		c-0.43,0.75-0.98,1.32-1.63,1.69c-0.66,0.38-1.43,0.56-2.33,0.56c-1.06,0-2.06-0.26-2.99-0.78c-0.93-0.52-1.63-1.16-2.12-1.92
		c-0.48-0.76-0.78-1.56-0.9-2.4c-0.12-0.84-0.18-2.09-0.18-3.77v-7.24c0-2.33,0.13-4.02,0.38-5.07s0.97-2.02,2.16-2.9
		c1.19-0.88,2.73-1.32,4.61-1.32c1.86,0,3.4,0.38,4.62,1.14c1.22,0.76,2.02,1.67,2.39,2.72c0.37,1.05,0.56,2.57,0.56,4.57V19.07z
		 M104.38,23c0.43,0.52,0.7,1,0.81,1.44c0.11,0.44,0.16,1.64,0.16,3.6v6.43h-5.89v-8.1c0-1.3-0.1-2.11-0.31-2.42
		c-0.21-0.31-0.74-0.47-1.62-0.47v10.99H91.2V10.1h4.49c2.99,0,5.01,0.12,6.07,0.35s1.92,0.82,2.59,1.77c0.67,0.95,1,2.46,1,4.54
		c0,1.9-0.24,3.17-0.71,3.82s-1.4,1.04-2.78,1.17C103.11,22.06,103.95,22.47,104.38,23z M114.14,34.46h-6.34V10.1h6.34V34.46z
		 M131.36,27.22c0,2.19-0.1,3.65-0.31,4.39c-0.21,0.74-0.56,1.31-1.08,1.73c-0.51,0.42-1.14,0.71-1.9,0.87
		c-0.75,0.17-1.89,0.25-3.4,0.25h-7.99V10.1h4.74c3.06,0,5.13,0.14,6.21,0.42c1.08,0.28,1.9,0.74,2.46,1.38
		c0.56,0.64,0.91,1.36,1.05,2.15c0.14,0.79,0.21,2.34,0.21,4.64V27.22z"/>
</g>
</svg>
